<?xml version='1.0' encoding='UTF-8'?>
<!DOCTYPE svg PUBLIC "-//W3C//DTD SVG 1.0//EN" "http://www.w3.org/TR/2001/REC-SVG-20010904/DTD/svg10.dtd">
<svg viewBox="0 0 916 1000" xmlns="http://www.w3.org/2000/svg" xmlns:inkspace="http://www.inkscape.org/namespaces/inkscape" xmlns:xlink="http://www.w3.org/1999/xlink">
  <defs id="defs_block">
    <filter height="1.504" id="filter_blur" inkspace:collect="always" width="1.1575" x="-0.07875" y="-0.252">
      <feGaussianBlur id="feGaussianBlur3780" inkspace:collect="always" stdDeviation="4.2" />
    </filter>
  </defs>
  <title>blockdiag</title>
  <desc>blockdiag {
    default_fontsize = 17;
    default_shape = roundedbox;
    default_linecolor = blue;
    span_width = 220;

    IO -&gt; Var_1, B, Var_N [label = "DefineVariable&lt;T&gt;",fontsize = 13];
    B [shape = "dots"];
    IO -&gt; B [style = "none"];

    IO -&gt; Att_1, C, Att_N [label = "DefineAttribute&lt;T&gt;",fontsize = 13];
    C [shape = "dots"];
    IO -&gt; C [style = "none"];

    IO -&gt; Transport_1, D, Transport_N [label = "AddTransport",fontsize = 13];
    D [shape = "dots"];
    IO -&gt; D [style = "none"];

    IO -&gt; Engine_1, E, Engine_N [label = "Open",fontsize = 13];
    E [shape = "dots"];
    IO -&gt; E [style = "none"];
}
</desc>
  <path d="M 231 46 L 343 46 A8,8 0 0 1 351 54 L 351 78 A8,8 0 0 1 343 86 L 231 86 A8,8 0 0 1 223 78 L 223 54 A8,8 0 0 1 231 46" fill="rgb(0,0,0)" stroke="rgb(0,0,0)" style="filter:url(#filter_blur);opacity:0.7;fill-opacity:1" />
  <path d="M 579 46 L 691 46 A8,8 0 0 1 699 54 L 699 78 A8,8 0 0 1 691 86 L 579 86 A8,8 0 0 1 571 78 L 571 54 A8,8 0 0 1 579 46" fill="rgb(0,0,0)" stroke="rgb(0,0,0)" style="filter:url(#filter_blur);opacity:0.7;fill-opacity:1" />
  <path d="M 579 206 L 691 206 A8,8 0 0 1 699 214 L 699 238 A8,8 0 0 1 691 246 L 579 246 A8,8 0 0 1 571 238 L 571 214 A8,8 0 0 1 579 206" fill="rgb(0,0,0)" stroke="rgb(0,0,0)" style="filter:url(#filter_blur);opacity:0.7;fill-opacity:1" />
  <path d="M 579 286 L 691 286 A8,8 0 0 1 699 294 L 699 318 A8,8 0 0 1 691 326 L 579 326 A8,8 0 0 1 571 318 L 571 294 A8,8 0 0 1 579 286" fill="rgb(0,0,0)" stroke="rgb(0,0,0)" style="filter:url(#filter_blur);opacity:0.7;fill-opacity:1" />
  <path d="M 579 446 L 691 446 A8,8 0 0 1 699 454 L 699 478 A8,8 0 0 1 691 486 L 579 486 A8,8 0 0 1 571 478 L 571 454 A8,8 0 0 1 579 446" fill="rgb(0,0,0)" stroke="rgb(0,0,0)" style="filter:url(#filter_blur);opacity:0.7;fill-opacity:1" />
  <path d="M 579 526 L 691 526 A8,8 0 0 1 699 534 L 699 558 A8,8 0 0 1 691 566 L 579 566 A8,8 0 0 1 571 558 L 571 534 A8,8 0 0 1 579 526" fill="rgb(0,0,0)" stroke="rgb(0,0,0)" style="filter:url(#filter_blur);opacity:0.7;fill-opacity:1" />
  <path d="M 579 686 L 691 686 A8,8 0 0 1 699 694 L 699 718 A8,8 0 0 1 691 726 L 579 726 A8,8 0 0 1 571 718 L 571 694 A8,8 0 0 1 579 686" fill="rgb(0,0,0)" stroke="rgb(0,0,0)" style="filter:url(#filter_blur);opacity:0.7;fill-opacity:1" />
  <path d="M 579 766 L 691 766 A8,8 0 0 1 699 774 L 699 798 A8,8 0 0 1 691 806 L 579 806 A8,8 0 0 1 571 798 L 571 774 A8,8 0 0 1 579 766" fill="rgb(0,0,0)" stroke="rgb(0,0,0)" style="filter:url(#filter_blur);opacity:0.7;fill-opacity:1" />
  <path d="M 579 926 L 691 926 A8,8 0 0 1 699 934 L 699 958 A8,8 0 0 1 691 966 L 579 966 A8,8 0 0 1 571 958 L 571 934 A8,8 0 0 1 579 926" fill="rgb(0,0,0)" stroke="rgb(0,0,0)" style="filter:url(#filter_blur);opacity:0.7;fill-opacity:1" />
  <path d="M 228 40 L 340 40 A8,8 0 0 1 348 48 L 348 72 A8,8 0 0 1 340 80 L 228 80 A8,8 0 0 1 220 72 L 220 48 A8,8 0 0 1 228 40" fill="rgb(255,255,255)" stroke="rgb(0,0,255)" />
  <text fill="rgb(0,0,0)" font-family="sans-serif" font-size="17" font-style="normal" font-weight="normal" text-anchor="middle" textLength="20" x="284.0" y="68">IO</text>
  <path d="M 576 40 L 688 40 A8,8 0 0 1 696 48 L 696 72 A8,8 0 0 1 688 80 L 576 80 A8,8 0 0 1 568 72 L 568 48 A8,8 0 0 1 576 40" fill="rgb(255,255,255)" stroke="rgb(0,0,255)" />
  <text fill="rgb(0,0,0)" font-family="sans-serif" font-size="17" font-style="normal" font-weight="normal" text-anchor="middle" textLength="50" x="632.0" y="69">Var_1</text>
  <ellipse cx="632.0" cy="140.0" fill="rgb(0,0,255)" rx="4.0" ry="4.0" stroke="rgb(0,0,255)" />
  <ellipse cx="632.0" cy="120.0" fill="rgb(0,0,255)" rx="4.0" ry="4.0" stroke="rgb(0,0,255)" />
  <ellipse cx="632.0" cy="160.0" fill="rgb(0,0,255)" rx="4.0" ry="4.0" stroke="rgb(0,0,255)" />
  <path d="M 576 200 L 688 200 A8,8 0 0 1 696 208 L 696 232 A8,8 0 0 1 688 240 L 576 240 A8,8 0 0 1 568 232 L 568 208 A8,8 0 0 1 576 200" fill="rgb(255,255,255)" stroke="rgb(0,0,255)" />
  <text fill="rgb(0,0,0)" font-family="sans-serif" font-size="17" font-style="normal" font-weight="normal" text-anchor="middle" textLength="50" x="632.0" y="229">Var_N</text>
  <path d="M 576 280 L 688 280 A8,8 0 0 1 696 288 L 696 312 A8,8 0 0 1 688 320 L 576 320 A8,8 0 0 1 568 312 L 568 288 A8,8 0 0 1 576 280" fill="rgb(255,255,255)" stroke="rgb(0,0,255)" />
  <text fill="rgb(0,0,0)" font-family="sans-serif" font-size="17" font-style="normal" font-weight="normal" text-anchor="middle" textLength="50" x="632.0" y="309">Att_1</text>
  <ellipse cx="632.0" cy="380.0" fill="rgb(0,0,255)" rx="4.0" ry="4.0" stroke="rgb(0,0,255)" />
  <ellipse cx="632.0" cy="360.0" fill="rgb(0,0,255)" rx="4.0" ry="4.0" stroke="rgb(0,0,255)" />
  <ellipse cx="632.0" cy="400.0" fill="rgb(0,0,255)" rx="4.0" ry="4.0" stroke="rgb(0,0,255)" />
  <path d="M 576 440 L 688 440 A8,8 0 0 1 696 448 L 696 472 A8,8 0 0 1 688 480 L 576 480 A8,8 0 0 1 568 472 L 568 448 A8,8 0 0 1 576 440" fill="rgb(255,255,255)" stroke="rgb(0,0,255)" />
  <text fill="rgb(0,0,0)" font-family="sans-serif" font-size="17" font-style="normal" font-weight="normal" text-anchor="middle" textLength="50" x="632.0" y="469">Att_N</text>
  <path d="M 576 520 L 688 520 A8,8 0 0 1 696 528 L 696 552 A8,8 0 0 1 688 560 L 576 560 A8,8 0 0 1 568 552 L 568 528 A8,8 0 0 1 576 520" fill="rgb(255,255,255)" stroke="rgb(0,0,255)" />
  <text fill="rgb(0,0,0)" font-family="sans-serif" font-size="17" font-style="normal" font-weight="normal" text-anchor="middle" textLength="110" x="632.0" y="549">Transport_1</text>
  <ellipse cx="632.0" cy="620.0" fill="rgb(0,0,255)" rx="4.0" ry="4.0" stroke="rgb(0,0,255)" />
  <ellipse cx="632.0" cy="600.0" fill="rgb(0,0,255)" rx="4.0" ry="4.0" stroke="rgb(0,0,255)" />
  <ellipse cx="632.0" cy="640.0" fill="rgb(0,0,255)" rx="4.0" ry="4.0" stroke="rgb(0,0,255)" />
  <path d="M 576 680 L 688 680 A8,8 0 0 1 696 688 L 696 712 A8,8 0 0 1 688 720 L 576 720 A8,8 0 0 1 568 712 L 568 688 A8,8 0 0 1 576 680" fill="rgb(255,255,255)" stroke="rgb(0,0,255)" />
  <text fill="rgb(0,0,0)" font-family="sans-serif" font-size="17" font-style="normal" font-weight="normal" text-anchor="middle" textLength="110" x="632.0" y="709">Transport_N</text>
  <path d="M 576 760 L 688 760 A8,8 0 0 1 696 768 L 696 792 A8,8 0 0 1 688 800 L 576 800 A8,8 0 0 1 568 792 L 568 768 A8,8 0 0 1 576 760" fill="rgb(255,255,255)" stroke="rgb(0,0,255)" />
  <text fill="rgb(0,0,0)" font-family="sans-serif" font-size="17" font-style="normal" font-weight="normal" text-anchor="middle" textLength="80" x="632.0" y="789">Engine_1</text>
  <ellipse cx="632.0" cy="860.0" fill="rgb(0,0,255)" rx="4.0" ry="4.0" stroke="rgb(0,0,255)" />
  <ellipse cx="632.0" cy="840.0" fill="rgb(0,0,255)" rx="4.0" ry="4.0" stroke="rgb(0,0,255)" />
  <ellipse cx="632.0" cy="880.0" fill="rgb(0,0,255)" rx="4.0" ry="4.0" stroke="rgb(0,0,255)" />
  <path d="M 576 920 L 688 920 A8,8 0 0 1 696 928 L 696 952 A8,8 0 0 1 688 960 L 576 960 A8,8 0 0 1 568 952 L 568 928 A8,8 0 0 1 576 920" fill="rgb(255,255,255)" stroke="rgb(0,0,255)" />
  <text fill="rgb(0,0,0)" font-family="sans-serif" font-size="17" font-style="normal" font-weight="normal" text-anchor="middle" textLength="80" x="632.0" y="949">Engine_N</text>
  <path d="M 348 60 L 560 60" fill="none" stroke="rgb(0,0,255)" />
  <polygon fill="rgb(0,0,255)" points="567,60 560,56 560,64 567,60" stroke="rgb(0,0,255)" />
  <path d="M 348 60 L 458 60" fill="none" stroke="rgb(0,0,255)" />
  <path d="M 458 60 L 458 220" fill="none" stroke="rgb(0,0,255)" />
  <path d="M 458 220 L 560 220" fill="none" stroke="rgb(0,0,255)" />
  <polygon fill="rgb(0,0,255)" points="567,220 560,216 560,224 567,220" stroke="rgb(0,0,255)" />
  <path d="M 348 60 L 458 60" fill="none" stroke="rgb(0,0,255)" />
  <path d="M 458 60 L 458 300" fill="none" stroke="rgb(0,0,255)" />
  <path d="M 458 300 L 560 300" fill="none" stroke="rgb(0,0,255)" />
  <polygon fill="rgb(0,0,255)" points="567,300 560,296 560,304 567,300" stroke="rgb(0,0,255)" />
  <path d="M 348 60 L 458 60" fill="none" stroke="rgb(0,0,255)" />
  <path d="M 458 60 L 458 460" fill="none" stroke="rgb(0,0,255)" />
  <path d="M 458 460 L 560 460" fill="none" stroke="rgb(0,0,255)" />
  <polygon fill="rgb(0,0,255)" points="567,460 560,456 560,464 567,460" stroke="rgb(0,0,255)" />
  <path d="M 348 60 L 458 60" fill="none" stroke="rgb(0,0,255)" />
  <path d="M 458 60 L 458 540" fill="none" stroke="rgb(0,0,255)" />
  <path d="M 458 540 L 560 540" fill="none" stroke="rgb(0,0,255)" />
  <polygon fill="rgb(0,0,255)" points="567,540 560,536 560,544 567,540" stroke="rgb(0,0,255)" />
  <path d="M 348 60 L 458 60" fill="none" stroke="rgb(0,0,255)" />
  <path d="M 458 60 L 458 700" fill="none" stroke="rgb(0,0,255)" />
  <path d="M 458 700 L 560 700" fill="none" stroke="rgb(0,0,255)" />
  <polygon fill="rgb(0,0,255)" points="567,700 560,696 560,704 567,700" stroke="rgb(0,0,255)" />
  <path d="M 348 60 L 458 60" fill="none" stroke="rgb(0,0,255)" />
  <path d="M 458 60 L 458 780" fill="none" stroke="rgb(0,0,255)" />
  <path d="M 458 780 L 560 780" fill="none" stroke="rgb(0,0,255)" />
  <polygon fill="rgb(0,0,255)" points="567,780 560,776 560,784 567,780" stroke="rgb(0,0,255)" />
  <path d="M 348 60 L 458 60" fill="none" stroke="rgb(0,0,255)" />
  <path d="M 458 60 L 458 940" fill="none" stroke="rgb(0,0,255)" />
  <path d="M 458 940 L 560 940" fill="none" stroke="rgb(0,0,255)" />
  <polygon fill="rgb(0,0,255)" points="567,940 560,936 560,944 567,940" stroke="rgb(0,0,255)" />
  <rect fill="white" height="16" stroke="rgb(0,0,0)" width="152" x="382" y="37" />
  <text fill="rgb(0,0,0)" font-family="sans-serif" font-size="13" font-style="normal" font-weight="normal" text-anchor="middle" textLength="136" x="458.0" y="51">DefineVariable&lt;T&gt;</text>
  <rect fill="white" height="16" stroke="rgb(0,0,0)" width="152" x="382" y="197" />
  <text fill="rgb(0,0,0)" font-family="sans-serif" font-size="13" font-style="normal" font-weight="normal" text-anchor="middle" textLength="136" x="458.0" y="211">DefineVariable&lt;T&gt;</text>
  <rect fill="white" height="16" stroke="rgb(0,0,0)" width="160" x="378" y="277" />
  <text fill="rgb(0,0,0)" font-family="sans-serif" font-size="13" font-style="normal" font-weight="normal" text-anchor="middle" textLength="144" x="458.0" y="291">DefineAttribute&lt;T&gt;</text>
  <rect fill="white" height="16" stroke="rgb(0,0,0)" width="160" x="378" y="437" />
  <text fill="rgb(0,0,0)" font-family="sans-serif" font-size="13" font-style="normal" font-weight="normal" text-anchor="middle" textLength="144" x="458.0" y="451">DefineAttribute&lt;T&gt;</text>
  <rect fill="white" height="18" stroke="rgb(0,0,0)" width="112" x="402" y="516" />
  <text fill="rgb(0,0,0)" font-family="sans-serif" font-size="13" font-style="normal" font-weight="normal" text-anchor="middle" textLength="96" x="458.0" y="532">AddTransport</text>
  <rect fill="white" height="18" stroke="rgb(0,0,0)" width="112" x="402" y="676" />
  <text fill="rgb(0,0,0)" font-family="sans-serif" font-size="13" font-style="normal" font-weight="normal" text-anchor="middle" textLength="96" x="458.0" y="692">AddTransport</text>
  <rect fill="white" height="18" stroke="rgb(0,0,0)" width="48" x="434" y="756" />
  <text fill="rgb(0,0,0)" font-family="sans-serif" font-size="13" font-style="normal" font-weight="normal" text-anchor="middle" textLength="32" x="458.0" y="772">Open</text>
  <rect fill="white" height="18" stroke="rgb(0,0,0)" width="48" x="434" y="916" />
  <text fill="rgb(0,0,0)" font-family="sans-serif" font-size="13" font-style="normal" font-weight="normal" text-anchor="middle" textLength="32" x="458.0" y="932">Open</text>
</svg>
